<?xml version="1.0" standalone="no"?>
<!DOCTYPE svg PUBLIC "-//W3C//DTD SVG 20010904//EN"
 "http://www.w3.org/TR/2001/REC-SVG-20010904/DTD/svg10.dtd">
<svg version="1.0" xmlns="http://www.w3.org/2000/svg"
 width="700.000000pt" height="700.000000pt" viewBox="0 0 700.000000 700.000000"
 preserveAspectRatio="xMidYMid meet">
<metadata>
Created by potrace 1.11, written by Peter Selinger 2001-2013
</metadata>
<g transform="translate(0.000000,700.000000) scale(0.100000,-0.100000)"
fill="#000000" stroke="none">
<path d="M3415 6650 c-22 -10 -50 -27 -62 -37 -19 -16 -456 -665 -494 -733
-11 -21 -14 -159 -14 -790 l-1 -765 -315 -525 c-173 -289 -320 -538 -327 -553
-16 -38 -15 -117 3 -160 20 -48 66 -94 118 -117 39 -18 64 -19 317 -17 273 2
275 2 310 26 83 58 105 98 105 193 0 69 -3 81 -30 120 -38 54 -119 98 -182 98
-24 0 -43 3 -43 6 0 3 103 178 230 389 126 210 234 395 241 411 7 20 11 255
11 782 l0 753 106 160 c59 87 110 158 114 157 4 -2 54 -74 112 -161 l105 -158
0 -747 c0 -451 4 -760 10 -779 8 -27 228 -405 316 -543 44 -69 155 -258 155
-264 0 -3 -16 -6 -36 -6 -59 0 -114 -21 -155 -60 -108 -101 -89 -272 40 -348
l46 -27 280 0 c311 0 311 0 380 71 43 44 58 92 53 163 -4 51 -16 76 -129 263
-68 114 -129 216 -134 225 -6 10 -62 103 -125 208 -63 104 -117 194 -120 200
-3 6 -36 62 -75 125 l-69 115 -1 765 c-1 628 -3 769 -14 790 -36 65 -476 717
-494 733 -39 33 -101 57 -147 57 -25 0 -63 -9 -85 -20z"/>
<path d="M3415 3151 c-49 -22 -87 -57 -112 -102 -17 -32 -18 -71 -20 -635 -1
-557 0 -604 17 -641 52 -117 183 -164 298 -107 60 30 108 94 117 158 3 22 4
300 3 616 l-3 575 -23 41 c-58 100 -177 141 -277 95z"/>
<path d="M1180 2703 c-392 -67 -693 -388 -736 -786 -4 -34 -7 -363 -7 -732 0
-729 -1 -717 56 -782 104 -118 293 -89 363 55 17 34 18 87 20 742 1 693 2 706
23 764 70 194 205 295 414 310 12 1 48 -4 80 -11 157 -35 279 -149 334 -313
20 -59 22 -85 23 -319 0 -223 3 -259 19 -295 20 -46 62 -91 104 -112 47 -25
139 -26 184 -2 95 50 124 104 130 238 5 124 27 171 99 211 87 49 190 41 265
-20 56 -47 70 -87 74 -210 4 -137 12 -189 41 -281 121 -374 462 -620 852 -612
130 2 236 27 361 86 132 62 293 207 367 332 88 150 123 275 128 468 3 98 8
130 24 162 34 67 110 108 197 107 62 -1 113 -23 160 -70 43 -43 54 -78 58
-183 4 -101 23 -146 80 -195 48 -42 90 -55 156 -50 83 6 147 51 182 129 16 36
19 69 19 281 1 338 21 417 139 534 168 166 423 163 595 -6 59 -59 118 -163
132 -233 4 -19 8 -345 9 -725 2 -614 4 -694 18 -725 46 -98 135 -143 250 -126
33 5 58 18 90 47 84 73 80 36 80 827 -1 758 -2 768 -59 921 -114 302 -375 519
-688 572 -42 7 -113 9 -175 6 -337 -18 -622 -220 -757 -537 -20 -48 -37 -74
-45 -72 -8 2 -48 13 -89 23 -295 76 -613 -67 -744 -335 -51 -103 -65 -173 -70
-341 -5 -166 -43 -256 -146 -348 -171 -153 -418 -150 -588 7 -91 84 -133 185
-138 333 -8 244 -37 328 -174 496 -27 34 -128 107 -188 137 -106 52 -191 70
-316 66 -117 -4 -138 -7 -204 -30 l-41 -15 -12 37 c-49 151 -197 340 -342 435
-75 50 -185 100 -267 122 -62 16 -281 28 -340 18z"/>
</g>
</svg>
