<?xml version="1.0" encoding="UTF-8" standalone="no"?>
<svg
   xmlns:dc="http://purl.org/dc/elements/1.1/"
   xmlns:cc="http://creativecommons.org/ns#"
   xmlns:rdf="http://www.w3.org/1999/02/22-rdf-syntax-ns#"
   xmlns:svg="http://www.w3.org/2000/svg"
   xmlns="http://www.w3.org/2000/svg"
   xmlns:sodipodi="http://sodipodi.sourceforge.net/DTD/sodipodi-0.dtd"
   xmlns:inkscape="http://www.inkscape.org/namespaces/inkscape"
   version="1.1"
   id="Icons"
   x="0px"
   y="0px"
   viewBox="0 0 32 32"
   style="enable-background:new 0 0 32 32;"
   xml:space="preserve"
   sodipodi:docname="launchpad_new.svg"
   inkscape:version="1.0.2 (e86c8708, 2021-01-15)"><metadata
   id="metadata74"><rdf:RDF><cc:Work
       rdf:about=""><dc:format>image/svg+xml</dc:format><dc:type
         rdf:resource="http://purl.org/dc/dcmitype/StillImage" /><dc:title /></cc:Work></rdf:RDF></metadata><defs
   id="defs72" /><sodipodi:namedview
   pagecolor="#ffffff"
   bordercolor="#666666"
   borderopacity="1"
   objecttolerance="10"
   gridtolerance="10"
   guidetolerance="10"
   inkscape:pageopacity="0"
   inkscape:pageshadow="2"
   inkscape:window-width="1440"
   inkscape:window-height="790"
   id="namedview70"
   showgrid="false"
   inkscape:zoom="18.21875"
   inkscape:cx="14.792453"
   inkscape:cy="15.780446"
   inkscape:window-x="0"
   inkscape:window-y="25"
   inkscape:window-maximized="0"
   inkscape:current-layer="Icons"
   inkscape:document-rotation="0" />
<style
   type="text/css"
   id="style61">
	.st0{fill:none;stroke:#000000;stroke-width:2;stroke-linecap:round;stroke-linejoin:round;stroke-miterlimit:10;}
</style>
<path
   class="st0"
   d="m 3,29.506003 v -5.8 c 0,-1.7 1.3,-3.1 3,-3.1 v 0 c 1.6,0 3,1.4 3,3.1 v 1.8 -0.4 c 0,-1.1 0.9,-1.9 2,-1.9 v 0 c 1.1,0 2,0.9 2,1.9 v 0.4 c 0,1.6 1.3,3 3,3 v 0 c 1.6,0 3,-1.3 3,-3 v -0.4 c 0,-1.1 0.9,-1.9 2,-1.9 v 0 c 1.1,0 2,0.9 2,1.9 v 0.4 -1.8 c 0,-1.7 1.3,-3.1 3,-3.1 v 0 c 1.6,0 3,1.4 3,3.1 v 5.8"
   id="path63"
   style="stroke:#ffffff;stroke-opacity:1" />
<polyline
   class="st0"
   points="13,18 11,18 14,13 14,6 16,3 18,6 18,13 21,18 19,18 "
   id="polyline65"
   style="fill:none;fill-opacity:1;stroke:#ffffff;stroke-opacity:1"
   transform="translate(0,-0.49399657)" />
<line
   class="st0"
   x1="16"
   y1="18.506004"
   x2="16"
   y2="23.506004"
   id="line67"
   style="stroke:#ffdf00;stroke-opacity:1" />
</svg>
