<?xml version="1.0" encoding="UTF-8" standalone="no"?>
<!DOCTYPE svg PUBLIC "-//W3C//DTD SVG 1.1//EN" "http://www.w3.org/Graphics/SVG/1.1/DTD/svg11.dtd">
<svg width="100%" height="100%" viewBox="0 0 512 512" version="1.1" xmlns="http://www.w3.org/2000/svg" xmlns:xlink="http://www.w3.org/1999/xlink" xml:space="preserve" xmlns:serif="http://www.serif.com/" style="fill-rule:evenodd;clip-rule:evenodd;stroke-linecap:round;stroke-linejoin:round;">
    <path d="M461.81,53.81C461.463,52.137 460.173,50.812 458.51,50.42C404.13,37.12 278.51,84.51 210.38,152.59C198.238,164.633 187.166,177.709 177.29,191.67C156.29,189.77 135.29,191.37 117.41,199.17C66.92,221.37 52.23,279.35 48.13,304.24C48.052,304.718 48.013,305.202 48.013,305.687C48.013,310.624 52.076,314.687 57.013,314.687C57.319,314.687 57.625,314.671 57.93,314.64L139,305.74C139.056,311.855 139.423,317.963 140.1,324.04C140.523,328.24 142.398,332.163 145.4,335.13L176.79,366.52C179.76,369.524 183.687,371.399 187.89,371.82C193.931,372.494 200.002,372.861 206.08,372.92L197.19,453.92C197.16,454.221 197.144,454.523 197.144,454.825C197.144,459.762 201.207,463.825 206.144,463.825C206.625,463.825 207.105,463.787 207.58,463.71C232.48,459.71 290.58,445.02 312.65,394.54C320.45,376.64 322.05,355.75 320.25,334.85C334.253,324.983 347.366,313.911 359.44,301.76C427.82,233.76 474.91,110.9 461.81,53.81ZM298.66,213.67C290.653,205.665 286.15,194.795 286.15,183.473C286.15,160.049 305.425,140.773 328.85,140.773C352.275,140.773 371.55,160.049 371.55,183.473C371.55,194.795 367.047,205.665 359.04,213.67C351.042,221.685 340.173,226.194 328.85,226.194C317.527,226.194 306.658,221.685 298.66,213.67Z" style="fill:white;fill-opacity:0;fill-rule:nonzero;stroke:white;stroke-width:32px;"/>
    <path d="M109.64,352C99.673,353.223 90.396,357.744 83.29,364.84C65.67,382.52 64,448 64,448C64,448 129.52,446.33 147.15,428.69C154.274,421.596 158.803,412.303 160,402.32" style="fill:none;fill-rule:nonzero;stroke:white;stroke-width:32px;"/>
</svg>
